<?xml version="1.0" encoding="utf-8"?>
<!-- Generator: Adobe Illustrator 27.4.1, SVG Export Plug-In . SVG Version: 6.00 Build 0)  -->
<svg version="1.1" id="Warstwa_1" xmlns="http://www.w3.org/2000/svg" xmlns:xlink="http://www.w3.org/1999/xlink" x="0px" y="0px"
	 viewBox="0 0 1024 1024" style="enable-background:new 0 0 1024 1024;" xml:space="preserve">
<path d="M208.5,342.7c0.2,0,0.3-0.1,0.3-0.3c0-0.2-0.1-0.3-0.3-0.3c-51.9-11.5-92-39.8-121.6-83.6c-4.1-6.1-6.8-11.3-9.2-18.7
	c-7.8-23.5-15-49.6-24.4-74.3c-4.2-11-10.5-20.7-19-28.9c-0.1-0.1-0.2-0.4,0-0.5c0.1-0.1,0.2-0.1,0.4-0.1
	c18.2,5.8,30.1,24.6,38.4,41.6c11.4,23.4,22.1,47.8,38.2,68.4c31.7,40.6,80.5,55,130,57.7c12.8,0.7,25.5,1.5,38.2,2.4
	c7.8,0.6,11.4-11.7,21-7.6c11.9,5,16-7.2,26.3-6c3.5,0.4,5.9,3.2,8.8,4.2c4.1,1.4,7.2-3.1,10.7-4.1c11.8-3.3,17.7,11.7,31,5.5
	c6.6-3.1,12.8,2.2,18,6.2c1.4,1,3.1,1.5,5.2,1.4c11.9-0.8,23.8-1.5,35.8-2.3c6.4-0.4,14.8-1.5,25-3.2c40.3-6.8,74.4-26.7,96.3-61.7
	c11.8-18.8,20.7-39.3,30.1-59.3c8.2-17.4,20-36.7,38.7-43.1c0.1,0,0.2,0,0.3,0.1c0,0.1,0,0.2,0,0.2c-9,9.4-15.6,20.1-20,32.2
	c-0.5,1.3-2.3,7.7-5.7,19.2c-4.7,16.3-9.4,32.7-14.1,49.1c-1.9,6.6-4.1,12.4-6.7,17.7c-2,3.9-5.2,9.3-9.7,16.1
	c-36,54.3-96.1,75-158,80.1c-0.4,0-0.7,0.4-0.6,0.7c0,0.2,0.1,0.3,0.2,0.4c6.9,7.3,16.7,5,24.7,1.3c12.2-5.7,22.9-11,35.5-9.8
	c10,0.9,19.4,3.9,28.3,9c2.2,1.3,5.8,0.5,8.4-0.5c13.6-5.2,24-9.9,37.2-6.5c8.7,2.2,17,9,25.9,12.6c12.3,5,25,8.6,38.2,10.8
	c25.3,4.1,50.8,6.2,76.5,6.3c16.8,0.1,31-0.9,42.5-2.7c10.4-1.7,20.9-3.3,31.3-4.9c12.5-1.8,19.9-0.3,29.9,6.9
	c12,8.6,19.5,14,22.5,16.3c9.2,7.1,19.5,11.4,31,12.9c6.4,0.9,10.6,9.1,13.8,15.3c0.7,1.4,2.7,4.5,6.1,9.2
	c4.5,6.2,5.6,16.1,5.8,25.1c0.4,14.5,0.8,29,1.1,43.5c0.4,20.6,2.9,40.5,7.5,59.8c6.1,25.2,10.1,42,12,50.3c0.3,1.3,1.5,3.4,3.6,6.2
	c5.5,7.3,7,16.3,6.2,25.3c-0.2,2-0.4,3.9-0.6,5.9c-0.6,5.9,1.7,11.1,1.6,17c0,5.6-1.2,11.1-3.4,16.4c-0.1,0.1-0.2,0.2-0.4,0.1
	c-0.1-0.1-0.2-0.2-0.1-0.3c0.9-4.4,1.2-8.8,1-13.2c0-0.1-0.1-0.2-0.2-0.2c-0.1,0-0.1,0.1-0.2,0.2c-1.5,10.6-2.3,21.2-2.2,31.8
	c0,1.7-0.5,1.8-1.5,0.5l-4.1-5.6c-0.1-0.2-0.4-0.2-0.5-0.1c-0.1,0.1-0.2,0.2-0.2,0.3l-1.7,20.6c0,0.2-0.2,0.3-0.3,0.3
	c-0.1,0-0.2-0.1-0.3-0.2c-1-2.8-2.4-5.3-4.3-7.6c-0.4-0.5-0.6-0.4-0.5,0.2l2.5,11.7c0.1,0.2-0.1,0.4-0.3,0.5c-0.2,0-0.3,0-0.4-0.2
	c-9-12-11.5-28.5-5.2-42.3c0-0.1,0-0.2-0.1-0.3c-0.1,0-0.1,0-0.2,0l-4.8,4.4c-0.2,0.2-0.5,0.2-0.7,0c-0.1-0.1-0.2-0.3-0.1-0.5
	c4.7-13.9,1.6-26.7-1.8-40.4c-1.3-5.3-1.4-10.5-0.2-15.6c1.1-4.8,5.1-9,6.8-13.1c2.8-7,0.4-18-1.5-25.3c-3.3-12.6-11.3-29.6-15.2-42
	c-3-9.7-5.2-19.6-6.4-29.7c0-0.2-0.2-0.3-0.4-0.3c-0.1,0-0.2,0.1-0.3,0.2c-6.1,13.2-4.8,27.2-8.8,41c-3.8,13.2-9.2,26-9.2,40.4
	c0,12.4,0.6,21.6-1.1,29.8c-2.1,9.6-8.2,17.6-9.5,27.6c-0.3,2.5-0.4,5.8-0.2,9.9c0.5,9.3,0.8,18.5,0.9,27.8c0.1,3.8,3.2,7.7,2,13.1
	c-0.5,2.6-2.1,6.6-4.6,12.2c-3.1,6.6-5,14.4-6.2,22.2c-2.7,17.9-4,36.3-3.8,55.1c0,5.4,0.2,9.6,1.8,14.9c2.5,8.4,4.6,14.6,4.5,24.6
	c-0.1,6.7-0.2,13.5-0.5,20.2c0,0.5-0.2,0.5-0.5,0.2c-1.8-1.9-3.7-7.1-7-3.6c-2.9,3.2,1.5,9.1,2.2,12.7c0.9,4.6,0.5,9.1-1.2,13.6
	c-0.9,2.3-2.5,3.1-4.8,3.5c-13.3,2.1-26.5,2-39.8-0.1c-0.9-0.1-2.2-0.8-4-1.8c-0.3-0.2-0.4-0.4-0.4-0.8c-0.1-6.6,5.9-18.4,8.2-21.6
	c3.9-5.3,6.5-9.8,7.7-13.5c1.5-4.5,1.2-11.4,3.5-16.8c3.5-8,5.6-14,6.3-18c3.6-21,2.6-41.8-3-62.3c-0.8-3-1.4-6.6-1.5-9.6
	c-0.3-8.2-1.3-16.3-3.2-24.2c-1.4-5.9-4.3-13.9-6.4-20.9c-2.4-7.9-2.5-15.3-2.7-24c-0.1-3.3-0.9-7-2.4-11
	c-2.6-6.9-5.9-13.5-9.7-19.8c-2.6-4.3-5.3-7.4-8-9.4c-7-5.2-17.7-7.7-23.9,0.4c-5.9,7.7-7.7,17.2-8.4,27.5
	c-1.2,16.4,2.3,32.5,11.8,45.9c4.6,6.4,9.4,11,7.4,19.7c-1.3,6.1-6.8,11.7-9.2,18.1c-4.7,12.5-9.6,29.2-12.4,38
	c-3.7,11.8-7.1,23.5-7.3,35.4c0,1.6,0.2,4.8,0.8,9.7c0.9,7.5,0.2,14.8-2,22.1c-1.5,4.9-1.9,8.8-2.3,13.5c-0.1,0.6-0.2,0.7-0.5,0.1
	c-1.1-2.7-2.1-6-5.4-6.9c-2.5-0.6-4.6,0.8-5.1,3.3c-0.6,3.7,2.9,6.6,2.3,10.4c-0.6,4-1.6,7.9-3.1,11.7c-0.7,1.9-2.1,2.7-4.1,3
	c-7,1.1-14.1,1.6-21.2,1.3c-5.1-0.2-19.1-0.8-21.8-4.6c-2.8-4.1,5.6-17.1,7.9-20c3.8-4.9,11.1-10.2,14.1-16.6
	c2.5-5.2,3.5-13.8,5.8-17.5c5.2-8.4,8.4-14.1,9.5-17.1c7-18.3,9.5-36.9,7.5-56c-1.6-14.7-9.3-24.7-18.7-37.5
	c-10.5-14.3-13.8-29.1-18.7-45.2c-1.5-4.9-4-11.6-9.9-10.5c-12.8,2.3-25.7,3.2-38.7,2.8c-4.9-0.2-9.8-0.4-14.6-0.7
	c-2.5-0.2-4.7,0.1-7,0.6c-0.4,0.1-0.6-0.1-0.5-0.5c0.3-5.6,0.3-9.3-0.2-11.2c-2.9-11.1-4.4-22.5-4.7-34c-0.1-4.3,1.9-11,4-15.4
	c4.9-10.2,11.5-19.3,17.8-28.6c6.4-9.4,1.7-26-1.4-36.2c-3-9.9-5.4-20-7.4-30.2c-1.6-8.1-2.3-18.1-3.8-27.2
	c-1.9-11.3-5.8-22-11.8-32.1c-0.1-0.1-0.3-0.2-0.4-0.1c-0.1,0-0.1,0.1-0.1,0.2c-3.4,16.7-5.4,33.6-6,50.6c0,0.2-0.2,0.4-0.5,0.4
	c-0.2,0-0.3-0.1-0.4-0.2c-9-15.9-12.7-33.5-20.6-49.9c-0.1-0.2-0.3-0.2-0.4-0.2c-0.1,0-0.2,0.1-0.2,0.2c-1.2,9.5-0.7,19.1,1.4,28.5
	c3.1,13.6,13.6,28.4,11.3,44.5c-0.4,2.6-1.8,8.9-4.3,18.8c-2.1,8.4-1.4,16.6,2.2,24.6c0.1,0.2,0.3,0.3,0.6,0.3
	c0.2-0.1,0.3-0.2,0.3-0.4c-0.1-13,7.3-24.9,20-29c0.1,0,0.3,0,0.3,0.2c0,0.1,0,0.2,0,0.2c-7.3,13.4-2.3,29,1.2,42.9
	c1.5,6.2,0.7,13.5-2.6,19.4c-5.3,9.4-3.9,21.3-2.7,31.7c3,26.2,6.5,52.7-1.7,77.5c-3,9-7.8,16.8-13,25.5c-2.7,4.5-4.3,9.5-4.7,15.1
	c-0.3,4.3,1.3,8.4,2.6,12.5c0.4,1.2,0.1,3.8-0.7,7.7c-1.5,6.9-5.8,15.1-7.2,22.1c-2.6,12.7-2.3,25.2,0.9,37.8
	c0.1,0.2,1.2,3.7,3.6,10.5c4.5,13.3,3.8,26.3,1.8,40.2c-0.5,3.2,2.5,6.4,3.7,9.2c2,4.7,0.7,11.6-0.2,16.5c-0.2,0.8-0.7,1.4-1.5,1.7
	c-2.7,0.9-5.6,1.5-8.8,1.7c-12.7,1.1-26.5,1.4-38.9-2.1c-3.9-1.1-2.6-5.8-1.8-8.6c2-6.4,4.2-12.8,6.7-19.1c3.1-8.1,0.1-17,1.7-25.4
	c1.5-7.6,4.7-16.3,6-22.1c2.6-12.4,2.4-24.9-0.7-37.4c-3.5-14.3-13.9-25.1-9.2-43c1.4-5.5,4.4-12.7,5.7-18.4
	c3.3-14.4,3.7-28.9,1.2-43.4c-0.5-3.1-2.1-6.1-5.4-7c-2.8-0.7-5.4-0.2-7.6,1.7c-8,6.7-10.7,15.3-13.9,26.7c-1.9,6.6-3.5,13.2-4.8,20
	c-0.4,2.2-1.9,7.5-5.5,4.9c-1-0.7-2-1.5-2.8-2.2c-0.5-0.4-1.2-0.3-1.6,0.2c0,0,0,0,0,0c-1.3,1.7-3.6,6.5-5.6,6.9
	c-2.4,0.5-4.5-1.8-5.6-3.7c-2.2-3.8-10.2-20.6-14.6-19.2c-4.9,1.6,1.9,18.9,3.2,21c3,5.2,7,11,8.3,16.3c3.3,13-4.7,25.3-7.8,37.4
	c-4.3,17.1-3.1,33.9,1.8,50.7c1.9,6.7,3.1,11.4,3.6,14.1c1.2,7.6,1.8,15.3,1.6,23c0,0.5-0.1,0.5-0.4,0.1c-0.7-1.1-1.1-2.4-1.9-3.3
	c-2-2.2-6.8-3.2-8.2,0.2c-2.2,5.2,4.3,9,4.3,13.3c0,5.3-0.5,9.6-1.6,12.7c-1.8,5.2-27.8,4.4-32.6,4c-4.7-0.3-15-0.8-17.5-4.2
	c-0.2-0.3-0.3-0.6-0.3-0.9c0.2-5.4,2.4-10.9,4.6-15.8c4.8-10.6,11-15.3,11-27.8c0-9.9,5-19.8,7.2-26.7c3.4-11,4-22.5,1.8-34.7
	c-1.3-7.1-4.5-14.5-7.4-21.5c-3-7.6-0.3-16.3-1.4-24.2c-2.7-18.6-14-33.8-23.5-47.8c-11.2-16.8-18.9-35.1-23.1-55
	c-1.4-6.8-1.9-12-1.4-15.5c1.1-8.1,3.2-14.2-1.7-21.8c-6-9.3-9.4-15.8-10.2-26.4c-1-12.6-1.7-26.5-7.3-38.6
	c-7.2-15.5-17.3-13.8-31.9-13c-3.9,0.2-7.3-1.3-10.1-4.5c-1.8-2-2.6-4.9-3.5-7.5c-0.1-0.3-0.4-0.5-0.7-0.5
	c-8.2,0.1-19.4-0.6-18.1-11.9c0.6-5.3,4-13,4.7-18.7c1.3-11.5-2.8-18.5-7.7-28.4c-3.5-7.1-4.3-17.5-4.8-27.8
	c-0.4-7.3-1.9-12.2-5.8-17.8c-0.3-0.4-0.2-0.7,0.3-0.7h2.8c0.4,0,0.7-0.3,0.7-0.7c0-0.2-0.1-0.4-0.3-0.6c-2.1-1.6-2.8-3.8-2.1-6.5
	c0.4-1.7,0-1.8-1.1-0.5c-0.3,0.4-0.8,0.9-1.4,1.5c-3.3,3.1-10.1-2.2-5.7-5.5c1.9-1.4,3.8-2.5,5.9-3.5c0.3-0.2,0.4-0.4,0.1-0.6
	c-3.1-3-6.6-3.8-10.6-2.3c-7.4,2.9-15.4,6.5-22.5,8c-11.9,2.5-25.6,2.8-36.6-3.3c-7.6-4.2-35.5-25.4-31.3-35.5
	c0.7-1.6,2.3-3.3,4.8-5C189,345.9,198.3,343,208.5,342.7z M233.9,346.8c5.6,2.7,10.7,5.1,15.3,7.1c7,3,14.9,4.3,19.6-2.8
	c0.1-0.2,0.1-0.5-0.1-0.6c-0.1,0-0.1-0.1-0.2-0.1c-11.4-0.7-22.7-2-34.1-3.9c-0.2,0-0.4,0-0.5,0
	C233.8,346.6,233.8,346.7,233.9,346.8C233.8,346.8,233.9,346.8,233.9,346.8z M669,428.3c3.6,2.7,6.9,6,9.8,9.8
	c5.5,7.3,10.3,14,14.5,20.4c0.1,0.2,0.3,0.2,0.5,0.1c0.1-0.1,0.2-0.2,0.1-0.3c-1.8-23.9-17.3-48.8-33.6-65.7c-0.1-0.1-0.1-0.3,0-0.4
	c0.1-0.1,0.2-0.1,0.2-0.1c8.3,1.2,15.6,4.6,21.8,10.3c0.2,0.2,0.5,0.2,0.6,0c0.1-0.1,0.1-0.3,0.1-0.5c-2.5-5.8-6.3-10.7-11.3-14.5
	c-0.2-0.2-0.3-0.5-0.1-0.7c0.1-0.1,0.2-0.2,0.4-0.2c9.7-0.6,18.8,1.4,27.2,6c0.3,0.2,0.6,0.1,0.7-0.2c0.1-0.2,0.1-0.4,0-0.6L695,385
	c-0.2-0.2-0.1-0.5,0.1-0.6c0.1-0.1,0.2-0.1,0.3-0.1c9.9,0.9,20.4,2.8,29.9,3.2c10.8,0.5,21-2.4,30.6-1.9c4.1,0.2,7.6,1.6,10.6,4.3
	c7.4,6.4,6.6,18,17,21.8c4.5,1.6,11.6,0.8,15.6,2.2c6.2,2.2,10.2,3.4,12.3,3.8c5.1,0.9,8.5,1.1,10.2,0.6c11.5-3,21.7-1.1,30.7,5.7
	c0.2,0.2,0.6,0.1,0.8-0.1c0.1-0.2,0.1-0.5,0-0.6c-5.4-6.2-11.4-10.8-17.9-13.9c-2.3-1.1-6.4-2.4-12.3-4c-9.4-2.6-17.4-4.6-25.3-9.1
	c-3.1-1.7-6.8-4.4-11.2-8.2c-9.9-8.4-16.5-15.6-30.5-14.3c-9.6,0.9-19.9,2.3-30.8,4.3c-12.8,2.3-21.8,3.4-27,3.3
	c-30.8-0.5-61.5-3.4-91.8-8.8c-1.4-0.2-3-0.2-4.8,0c-8.1,1.1-14.1-2.4-21.2-5.9c-0.4-0.2-0.5-0.1-0.4,0.3l10,27.7
	c0.1,0.2,0,0.4-0.3,0.5c-0.1,0-0.3,0-0.4,0c-6.7-4.5-12.3-10.1-16.7-16.8c-0.1-0.2-0.4-0.2-0.6-0.1c-0.1,0.1-0.2,0.2-0.2,0.4
	c1.5,16.2,9.6,28.3,17.5,41.7c9,15.3,14.4,31.6,16.2,49.1c0,0.2,0.2,0.3,0.4,0.3c0.1,0,0.2-0.1,0.3-0.2c11-20.4,12-43.3-3.8-61.6
	c-0.1-0.1-0.1-0.3,0-0.5c0.1-0.1,0.2-0.1,0.3-0.1c8.3,1,15.3,4.4,21.2,10c2.6,2.5,4.9,6.1,7.3,9.2c5.9,7.9,14,14,20.2,21.6
	c10.6,13,18,27.3,25.1,42.5c0.2,0.5,0.4,0.5,0.5-0.1c1-7.8,0.9-15.6-0.3-23.5c-1-6.9-4.4-17.9-6-26.9c-0.7-3.8-1.3-7.7-2-11.5
	C668.5,428.1,668.6,428,669,428.3z M456.2,446.1c2.8,18.8,2.5,37.6-0.8,56.4c-2.1,11.8-6.4,22.6-12.9,32.3c-0.1,0.2,0,0.4,0.1,0.5
	c0.1,0.1,0.3,0.1,0.4,0c15.4-15.8,24.6-36.7,28.3-58.2c4.5-26.3,4-55.5-5.8-80.6c-0.1-0.3-0.4-0.5-0.7-0.4
	c-8.9,1.3-17.6,0.9-26.2-1.1c-7-1.7-16.2-5.8-23.1-7.9c-2.6-0.8-5.1-0.4-7.4,1.2c-0.2,0.1-0.2,0.4-0.1,0.6c0.1,0.1,0.1,0.1,0.3,0.2
	c3.4,0.8,6.4,2.5,8.9,4.9c0.2,0.2,0.1,0.4,0,0.6c-0.1,0.1-0.2,0.1-0.4,0.1l-6.5-1.8c-0.7-0.2-0.8,0-0.4,0.5c2.5,3.3,1.4,6.6-2.5,7.9
	c-2.9,1-4.9-0.1-5.9-3.1c-0.1-0.3-0.4-0.4-0.7-0.3c-0.2,0.1-0.3,0.3-0.3,0.5l0.2,6c0,0.7,0.6,1.4,1.4,1.4l3.9,0.3
	c0.2,0,0.4,0.2,0.4,0.4c0,0.1,0,0.2-0.1,0.2c-3.1,4-4.6,8-4.5,11.9c0.2,8.9,0.2,15.6-0.1,20.2c-0.8,17.3-6.8,32.2-17.9,44.9
	c-0.5,0.6-0.4,0.8,0.4,0.6c1.1-0.3,2.5-1.3,4.4-3.2c21.2-21.5,23-50,23.8-78.4c0-0.2,0.2-0.4,0.4-0.4c0.2,0,0.4,0.1,0.4,0.3
	c1,5.6,1.5,11.4,1.3,17.4c-0.4,16.1-2.7,32-7,47.5c-4.8,17.3-12.9,33.1-24.4,47.2c-0.1,0.1-0.1,0.3,0,0.4c0.1,0.1,0.2,0.1,0.3,0
	c10.8-4.6,19.2-20.5,23.5-31.3c5.6-14.1,9.6-28.6,11.9-43.6c2.6-17.2,2-34.2-2-51.1c-0.1-0.3,0-0.4,0.4-0.4c0.1,0,0.2,0.1,0.4,0.2
	c0.2,0.1,0.3,0.3,0.4,0.6c2.1,5.8,5.6,12,7.5,16.7c6.6,16.9,8.5,34.7,8,52.7c0,0.2,0.1,0.3,0.2,0.4s0.3-0.1,0.4-0.2l0,0
	c3.8-10.7,6-21.7,6.5-33.1c0-0.1,0-0.1,0.1-0.2c0.1,0,0.1-0.1,0.2-0.1c0.1,0,0.1,0,0.2,0c0,0,0,0,0,0.1c2.6,20.1,1.2,39.9-4.1,59.3
	c-0.3,1.2-0.1,1.3,0.6,0.3c8.8-11.5,14.5-25.5,18.4-39.4c0-0.1,0.1-0.1,0.2-0.1C456.1,446,456.2,446,456.2,446.1z M773.8,475.3
	c0.2,0.1,0.3,0.3,0.3,0.5c0,0.1-0.1,0.2-0.3,0.3c-17.2,4.7-21.7-14-22.3-26.3c0-0.2-0.2-0.4-0.4-0.4c-0.2,0-0.3,0.1-0.3,0.2
	c-12.1,29.7-7.4,63.6,3.7,92.8c0,0.1,0.2,0.1,0.3,0.1c0.1,0,0.1-0.1,0.1-0.1c1.1-12.8,4.6-26.7,11.1-37.9c3.6-6.2,8.1-9.9,12.9-14.3
	c7-6.3,2.5-14.3,3.1-22.2c0.8-9.8,7-19,16.2-23.3c3.5-1.7,3.4-2-0.4-1.2c-8.5,1.9-16,7.6-21.5,14.2
	C773.1,461.3,765.4,472.6,773.8,475.3z M364.8,467.6c1.2,2.4,1.9,5.8,2.1,10.3c0.2,7.3,7.6,12.6,8.2,20.1c0.5,5.8-2.3,9.7-8.4,11.6
	c-0.2,0.1-0.3,0.2-0.2,0.4c0,0.1,0.2,0.2,0.3,0.2c10.4-0.5,16.2-7.7,12.1-17.5c-1.9-4.6-3.9-9-5.2-13.8c-1.9-7.1-3.5-14.3-4.8-21.5
	c-0.1-0.4-0.5-0.7-0.9-0.6c-0.2,0-0.3,0.1-0.4,0.3c-2,2.5-4.4,3.2-7.3,2.3c-2.1-0.7-4-2.9-5.9-3.6c-5.1-2.2-8,5.4-8.1,9.2
	c0,0.5,0.4,0.9,0.8,0.9c0.2,0,0.4-0.1,0.6-0.2c1.6-1.3,3.5-2.5,5.5-3.4C357.5,460.1,362.8,463.8,364.8,467.6z M449.7,622.1
	c0.2-0.6,0.1-0.7-0.3-0.2c-3.1,3.1-6.6,5.7-10.1,1.2c-1.7-2.1-3.4-5.4-5-9.9c-7.5-20.1-14.6-40.9-26.7-58.7
	c-6.6-9.7-13.9-16.1-24.1-20.6c-3.7-1.6-4-1.1-0.9,1.4c26.6,21.8,34.8,60.7,43,92.2c1.5,5.9,3.2,10.4,6,15.3
	C438.2,654.8,448.3,626,449.7,622.1z M746.1,594.4c5.7,1.4,11,5.3,15,9.6c0.2,0.2,0.5,0.2,0.6,0c0.1-0.1,0.2-0.3,0.1-0.4
	c-3.2-12.4-14.8-42.8-31.5-18.6c-9,13.1-17.6,24.3-29.7,34.3c-0.1,0.1-0.1,0.3,0,0.5c0.1,0.1,0.2,0.1,0.3,0.1
	c8.7-2.8,14.6-6.8,21.5-13.5C729.2,600.1,735.5,591.9,746.1,594.4z"/>
</svg>
