<?xml version="1.0" encoding="utf-8"?>
<svg version="1.1" id="Layer_1" xmlns="http://www.w3.org/2000/svg" xmlns:xlink="http://www.w3.org/1999/xlink" x="0px" y="0px"
	 viewBox="0 0 1858.875 1719.628" style="enable-background:new 0 0 1858.875 1719.628;" xml:space="preserve">
<path d="M147.481,59.837c17.026,11.111,155.055,130.45,137.791,255.92c-16.23,106.237-111.865,238.915-48.351,341.487
	c11.418,18.488,19.75,28.967,37.416,28.222c44.255,1.681,142.288-61.329,260.401-89.654c14.004-3.761,18.445-1.637,23.115-12.401
	c24.17-51.458,109.146-81.341,165.773-93.374c4.674-1.232,19.707-2.104,14.394-11.294c-3.218-4.474-9.467-6.814-48.517-21.275
	c126.732-3.581,234.163,67.278,240.126,68.952c5.234-1.708,112.221-71.651,237.466-69.052l1.227-0.907
	c-0.28,0.587-0.833,1.747-1.113,2.334c-4.579,0.582-30.845,11.139-35.969,13.268c-6.109,2.678-12.603,5.495-10.127,12.334
	c2.737,5.954,11.183,2.631,55.478,16.408c30.856,8.171,100.504,36.221,123.583,80.606c10.4,19.836,0.386,1.366,103.228,38.623
	c68.824,24.935,125.522,55.575,165.593,63.732c31.915,6.219,37.679-5.396,47.044-17.708c66.216-91.118-4.555-207.702-37.516-325.859
	c-8.588-40.036-9.599-68.892,6.667-114.982c28.894-77.759,101.149-148.862,126.21-165.293
	c-5.053,13.451-64.439,137.031-39.796,248.92c25.692,118.72,161.541,250.039,111.916,438.355
	c-59.064,224.315-400.668,149.062-412.773,153.586c-0.867,0.387-2.16,0.667-1.953,1.893c-0.533,1.9,0.933,3.314,2.354,4.32
	c9.862,7.506,204.095,90.128,210.543,94.908c-3.796,6.181-125.934,62.302-226.305,34.563c-3.42-0.9-6.707-2.333-10.201-2.854
	c-13.298,4.087-4.443,5.937,19.842,74.353c31.362,95.621,44.881,208.72-49.991,240.619
	c-105.68,36.24-147.093,133.889-198.502,148.152c-4.587,1.2-8.634,5.454-8.481,10.367c-0.16,13.541,5.452,77.522-35.843,117.196
	c-16.655,16.895-39.496,26.355-62.572,30.402c-3.36,0.42-5.947,2.714-8.114,5.134H867.998
	c-12.566-8.099-119.364-5.826-117.263-138.011c-0.028-20.126,4.295-20.281-12.481-26.409
	c-49.952-17.807-86.345-108.642-198.922-148.485c-106.181-40.607-69.013-191.203-23.109-295.823c2.12-4.3,4.207-9.154,2.794-14.001
	c-3.033-5.102-16.339-0.444-18.055,0.007c-41.355,10.743-86.369,8.705-128.417-0.593c-46.429-8.579-95.694-33.854-96.694-34.296
	c176.799-79.832,209.573-88.888,207.57-98.055c-7.465-5.404-47.423,4.651-114.402,5.274
	c-279.006-2.808-293.43-136.2-304.151-235.025c-12.935-236.169,219.457-292.494,87.56-602.914
	C150.774,67.617,148.887,63.823,147.481,59.837z"/>
</svg>
