<?xml version="1.0" standalone="no"?>
<!DOCTYPE svg PUBLIC "-//W3C//DTD SVG 20010904//EN"
 "http://www.w3.org/TR/2001/REC-SVG-20010904/DTD/svg10.dtd">
<svg version="1.0" xmlns="http://www.w3.org/2000/svg"
 width="1058.000000pt" height="1058.000000pt" viewBox="0 0 1058.000000 1058.000000"
 preserveAspectRatio="xMidYMid meet">
<metadata>
Created by potrace 1.12, written by Peter Selinger 2001-2015
</metadata>
<g transform="translate(0.000000,1058.000000) scale(0.100000,-0.100000)"
fill="#000000" stroke="none">
<path d="M8232 10153 c-16 -21 -35 -49 -42 -62 -7 -14 -23 -36 -36 -50 -13
-14 -24 -29 -24 -33 0 -5 -4 -8 -9 -8 -6 0 -11 19 -13 43 -3 39 -5 42 -30 40
-15 -1 -36 -10 -47 -20 -18 -17 -94 -152 -134 -238 -35 -77 -42 -88 -53 -92
-7 -2 -13 16 -16 46 -6 62 -21 81 -62 81 -37 0 -56 -15 -56 -45 0 -12 -5 -26
-11 -32 -6 -6 -17 -22 -23 -35 -8 -17 -23 -25 -53 -29 -47 -6 -73 -23 -73 -49
0 -20 -27 -78 -47 -102 -8 -9 -49 -24 -91 -33 -43 -10 -83 -20 -91 -24 -14 -7
-44 -78 -55 -131 -8 -42 -32 -70 -60 -70 -35 0 -66 -28 -65 -58 0 -26 -22
-105 -44 -149 -15 -33 -77 -28 -77 6 0 30 -45 61 -88 61 -30 0 -43 5 -54 23
-15 22 -89 50 -137 51 -29 1 -39 25 -40 104 -1 37 -5 52 -15 52 -7 0 -19 7
-26 15 -23 28 -51 20 -131 -37 -14 -10 -40 -19 -59 -20 -32 -3 -34 -1 -37 32
-2 19 -8 50 -14 69 -11 32 -13 33 -50 27 -25 -4 -40 -2 -46 6 -4 7 -10 50 -14
96 -6 93 -16 109 -71 115 -49 5 -64 -13 -71 -85 -3 -32 -8 -62 -12 -68 -12
-19 -35 10 -35 45 0 73 -19 140 -47 162 -60 49 -123 15 -121 -64 1 -46 -4 -59
-20 -49 -17 10 -53 92 -56 127 -7 59 -18 99 -28 99 -10 0 -6 90 6 126 13 35
-22 65 -79 69 -47 3 -50 5 -53 32 -4 35 -49 83 -76 83 -42 0 -51 -16 -56 -97
-5 -70 -7 -78 -27 -81 -17 -3 -24 5 -38 48 -19 59 -30 66 -82 53 -33 -8 -38
-13 -48 -51 -13 -53 -38 -80 -58 -63 -12 9 -18 6 -31 -13 -9 -14 -16 -32 -16
-40 0 -23 -50 -76 -72 -76 -19 0 -20 -5 -16 -57 4 -45 1 -67 -14 -95 -20 -38
-96 -118 -112 -118 -5 0 -25 -16 -44 -36 -19 -19 -45 -39 -58 -44 -17 -7 -24
-17 -24 -35 0 -14 5 -25 10 -25 6 0 10 -7 10 -15 0 -8 9 -19 20 -25 29 -16 24
-31 -22 -65 -67 -49 -69 -57 -18 -108 25 -24 57 -58 73 -75 24 -27 32 -30 64
-25 20 4 48 12 63 20 14 7 29 13 33 13 5 0 29 17 54 38 26 20 48 36 49 35 6
-4 38 10 64 27 14 9 39 20 55 23 17 3 38 9 48 12 12 5 17 2 17 -9 0 -9 -4 -16
-9 -16 -5 0 -19 -16 -32 -35 -13 -19 -30 -35 -38 -35 -25 0 -201 -135 -201
-154 0 -8 13 -25 29 -39 21 -17 37 -23 60 -19 17 2 29 8 26 12 -3 5 4 6 15 3
12 -3 20 0 20 6 0 7 6 11 13 10 13 -2 48 10 57 20 6 7 81 43 127 61 18 7 40 9
49 6 13 -5 9 -13 -22 -44 -22 -21 -50 -45 -64 -53 -14 -9 -32 -29 -40 -44 -14
-26 -13 -28 13 -51 35 -30 103 -33 133 -6 16 14 87 52 98 52 1 0 16 -11 32
-25 16 -14 36 -25 45 -25 8 0 20 -5 26 -11 7 -7 22 -7 50 1 21 7 50 10 63 8
21 -2 25 -8 23 -33 -1 -16 -4 -42 -8 -56 -5 -21 -1 -32 20 -52 43 -39 30 -51
-61 -52 -59 0 -87 4 -109 17 -16 10 -36 18 -43 18 -8 0 -27 9 -42 20 -18 13
-31 16 -35 10 -3 -5 -15 -10 -25 -10 -10 0 -25 -7 -33 -15 -8 -8 -34 -24 -57
-36 -23 -12 -47 -33 -52 -45 -13 -27 -36 -32 -44 -9 -4 8 -12 15 -19 15 -7 0
-15 5 -17 12 -3 8 -22 11 -52 9 -30 -1 -57 4 -72 13 -46 31 -104 9 -104 -40 0
-41 -13 -45 -70 -23 -43 16 -61 19 -82 11 -16 -6 -30 -6 -36 0 -13 13 -69 -54
-83 -102 -14 -46 -22 -49 -44 -16 -25 37 -165 59 -165 25 0 -4 -7 -6 -15 -3
-21 8 -65 -22 -65 -45 0 -14 -10 -20 -38 -25 -21 -3 -52 -18 -70 -34 -28 -25
-32 -35 -32 -80 0 -34 -4 -53 -12 -54 -7 0 -20 -1 -28 -2 -21 -1 -34 -55 -21
-89 6 -15 25 -36 43 -47 18 -10 41 -33 51 -50 10 -16 23 -30 28 -30 6 0 26
-16 45 -35 18 -19 40 -35 47 -35 20 0 47 -33 47 -58 0 -15 -6 -22 -20 -22 -55
0 -38 -108 21 -129 16 -5 29 -14 29 -19 0 -9 -41 -101 -59 -132 -4 -8 -16 -31
-26 -50 -10 -19 -24 -40 -31 -46 -12 -10 -44 -85 -44 -104 0 -4 15 -13 33 -21
17 -7 35 -18 39 -23 5 -7 17 -5 36 6 16 10 32 15 35 12 3 -3 17 18 30 48 28
61 71 92 82 58 9 -29 30 -41 81 -48 53 -8 61 -20 63 -98 1 -49 -16 -68 -50
-56 -38 15 -120 -22 -105 -47 8 -12 -13 -28 -49 -37 -59 -14 -80 -58 -56 -119
6 -14 2 -28 -15 -48 -13 -16 -22 -33 -19 -38 8 -11 -46 -79 -62 -79 -7 0 -13
5 -13 10 0 20 -49 60 -72 60 -13 0 -35 -11 -49 -24 -20 -19 -37 -24 -74 -24
-36 0 -50 -5 -62 -21 -8 -12 -34 -31 -58 -42 -35 -16 -47 -30 -62 -65 -17 -42
-20 -45 -47 -40 -40 8 -41 10 -22 50 11 24 14 47 10 73 -6 38 -5 40 49 75 56
38 71 65 56 106 -6 16 -1 25 32 46 21 15 39 30 39 35 0 5 12 11 28 15 46 10
75 40 78 81 4 49 -1 56 -31 45 -40 -15 -38 6 4 39 21 17 43 31 48 31 5 0 23
17 40 38 23 28 30 45 26 65 -3 15 -1 33 4 40 17 20 24 96 12 118 -14 26 -93
62 -119 54 -15 -5 -23 0 -31 17 -12 28 -58 50 -96 47 -15 -2 -47 2 -70 9 -39
12 -42 15 -49 58 -3 25 -4 63 -1 84 3 27 1 43 -9 51 -8 6 -14 17 -14 23 -1 15
-80 51 -105 47 -33 -5 -55 -32 -55 -67 0 -18 -3 -39 -6 -48 -8 -20 -33 -21
-40 -1 -9 21 -58 19 -79 -5 -15 -16 -17 -32 -13 -94 3 -41 2 -80 -2 -85 -4 -7
-18 1 -35 19 -29 31 -62 38 -94 20 -15 -8 -18 -18 -13 -55 6 -55 -14 -85 -53
-77 -24 4 -25 3 -25 -54 0 -70 -19 -184 -33 -202 -6 -8 -27 -21 -46 -30 -25
-12 -37 -26 -43 -50 -7 -26 -13 -32 -30 -30 -25 4 -35 -13 -43 -75 l-6 -47
-28 27 c-15 16 -30 35 -33 44 -8 20 -43 15 -76 -10 -22 -16 -22 -20 -12 -62 6
-24 10 -69 8 -99 -3 -51 -5 -56 -34 -65 -16 -5 -42 -18 -57 -27 -38 -26 -70
-11 -87 42 -8 23 -20 44 -27 47 -7 3 -29 -7 -47 -21 -41 -31 -51 -22 -42 37 8
59 -9 78 -65 74 -37 -2 -46 -8 -57 -30 -16 -34 -28 -34 -35 -1 -3 16 0 28 9
31 18 7 19 80 1 98 -7 7 -22 15 -33 17 -11 2 -17 10 -15 19 2 8 5 39 6 69 2
30 6 67 10 83 4 15 4 38 1 52 -5 20 -13 25 -36 25 -23 0 -33 -6 -42 -25 -6
-14 -15 -25 -19 -25 -13 0 -39 31 -39 45 0 8 -11 22 -24 30 -23 16 -39 79 -37
148 1 23 -5 30 -35 43 -19 8 -43 28 -52 44 -41 72 -113 27 -150 -94 l-24 -76
-44 0 c-31 0 -46 5 -50 15 -4 10 -13 13 -26 9 -13 -4 -28 1 -42 15 l-22 21
-30 -33 c-17 -17 -38 -45 -48 -60 -10 -17 -23 -26 -31 -23 -8 3 -19 -2 -24
-11 -7 -14 -25 -17 -85 -18 -82 0 -96 -8 -96 -52 0 -15 10 -28 30 -38 33 -17
36 -26 19 -54 -20 -31 -4 -65 38 -80 21 -7 55 -26 75 -42 20 -16 44 -29 52
-29 9 0 16 -4 16 -9 0 -23 -54 -111 -72 -117 -14 -4 -17 -11 -12 -27 8 -28 24
-48 34 -42 3 2 22 -9 41 -25 19 -16 40 -29 47 -30 6 0 12 -6 13 -12 0 -7 1
-31 2 -53 2 -33 7 -42 30 -53 15 -7 27 -17 27 -23 0 -5 8 -9 18 -9 22 0 79
-46 70 -56 -4 -4 -31 -3 -60 2 -43 7 -60 6 -90 -8 -29 -14 -35 -22 -31 -40 8
-36 25 -68 38 -68 6 0 26 -16 45 -35 19 -19 39 -35 46 -35 7 0 26 -11 42 -25
17 -14 34 -25 39 -25 6 0 15 -11 21 -25 11 -23 9 -29 -15 -49 -26 -23 -27 -25
-13 -51 8 -15 24 -31 35 -36 48 -20 82 -64 94 -117 12 -57 9 -72 -15 -72 -7 0
-19 -9 -26 -20 -20 -32 -44 -24 -83 26 -19 26 -35 50 -35 53 0 4 -16 13 -35
20 -27 10 -39 10 -50 1 -7 -6 -38 -14 -67 -17 -51 -5 -56 -3 -86 27 -36 36
-64 36 -114 0 -35 -25 -43 -25 -62 2 -23 33 -76 25 -133 -18 -24 -19 -51 -34
-58 -34 -8 0 -31 16 -52 35 -39 36 -50 39 -101 29 -27 -5 -31 -11 -34 -43 -3
-34 -5 -36 -48 -43 -25 -4 -67 -12 -95 -17 -27 -6 -65 -13 -83 -17 -21 -4 -43
-2 -57 6 -38 20 -59 -3 -51 -54 7 -39 73 -178 88 -184 5 -2 8 -8 8 -14 0 -5
15 -33 33 -61 59 -92 67 -106 67 -122 0 -8 -5 -15 -10 -15 -21 0 -72 -60 -80
-94 -4 -20 -3 -56 2 -81 5 -26 6 -58 2 -73 -4 -15 -8 -31 -9 -37 -2 -5 -11
-34 -20 -63 -15 -45 -16 -57 -5 -78 8 -13 20 -24 28 -24 21 0 7 -95 -19 -128
-25 -32 -24 -52 2 -52 13 0 23 10 30 30 6 17 15 30 20 30 5 0 9 7 9 16 0 8 -5
12 -10 9 -12 -8 -13 -3 -1 28 5 13 19 27 30 30 19 5 21 1 21 -34 0 -41 9 -49
30 -24 7 8 19 15 26 15 9 0 15 14 16 43 9 175 9 175 24 181 6 2 15 23 19 46 9
52 35 80 75 80 38 0 38 -11 0 -85 -16 -32 -30 -64 -30 -71 0 -6 -7 -15 -16
-18 -11 -4 -15 -16 -13 -40 2 -19 0 -38 -4 -42 -4 -4 -7 -18 -7 -32 0 -14 -10
-51 -21 -83 -33 -90 -17 -118 65 -119 59 0 103 21 127 61 31 49 41 49 33 0 -5
-33 -3 -41 14 -50 32 -17 90 -14 100 6 9 15 15 15 50 5 21 -7 53 -12 70 -12
22 0 35 -6 43 -22 17 -33 61 -78 76 -78 22 0 14 -16 -14 -30 -55 -28 -83 -61
-83 -100 0 -33 -6 -42 -58 -82 -32 -25 -75 -53 -96 -62 l-39 -16 5 -51 5 -51
-86 -87 c-101 -101 -151 -158 -151 -171 0 -5 11 -12 25 -16 30 -7 58 12 50 35
-3 10 7 28 25 44 17 16 28 33 24 38 -3 5 0 9 6 9 6 0 8 4 5 10 -3 6 5 10 18
10 30 0 107 39 107 54 0 6 5 4 10 -4 8 -12 10 -11 10 6 0 23 61 79 116 107 17
9 36 23 43 31 19 22 51 20 51 -2 0 -20 -39 -62 -57 -62 -6 0 -16 -7 -23 -15
-15 -18 1 -20 18 -3 17 17 51 -16 37 -35 -6 -8 -27 -39 -48 -70 -21 -31 -42
-57 -47 -57 -5 0 -11 -8 -14 -17 -3 -10 -27 -27 -53 -37 -27 -10 -57 -27 -68
-36 -11 -9 -27 -20 -35 -24 -8 -3 -31 -19 -51 -34 -20 -15 -80 -60 -133 -99
-53 -40 -96 -77 -96 -81 0 -15 24 -32 44 -31 12 0 35 17 51 37 21 25 25 34 13
29 -25 -9 -23 10 2 23 18 10 24 7 21 -12 0 -4 11 -11 25 -14 22 -6 23 -8 10
-23 -19 -21 0 -50 29 -42 31 9 74 52 68 67 -3 10 0 12 10 9 8 -4 17 1 20 9 4
9 15 16 26 16 10 0 26 12 36 26 22 34 30 24 15 -21 -8 -24 -29 -48 -63 -74
-29 -22 -83 -71 -121 -111 -71 -73 -103 -85 -94 -35 6 29 7 28 -26 15 -29 -11
-33 -31 -11 -54 8 -8 15 -23 15 -33 1 -56 61 -71 88 -21 18 34 71 88 86 88 5
0 19 12 32 26 20 21 25 23 30 9 7 -16 3 -42 -16 -115 -7 -25 -12 -69 -12 -99
0 -45 3 -57 23 -72 27 -20 68 -30 96 -23 17 5 21 -1 26 -33 4 -21 7 -52 7 -68
0 -19 7 -35 20 -43 24 -14 44 -7 36 14 -3 9 0 11 11 7 12 -5 14 -3 8 8 -5 7
-10 20 -11 29 -1 8 -6 34 -12 57 -8 33 -7 45 4 54 8 6 14 18 14 26 0 10 6 13
17 9 9 -4 39 -2 68 5 39 9 55 18 68 40 11 20 24 29 41 29 32 0 54 23 62 66 6
35 42 64 79 64 8 0 15 8 15 18 0 10 7 28 16 41 15 21 15 30 0 119 -25 153 -29
167 -44 158 -13 -8 -20 108 -10 179 6 47 38 64 38 21 0 -15 5 -35 10 -46 6
-11 15 -29 20 -40 6 -11 10 -33 10 -49 0 -24 7 -33 35 -47 56 -26 80 -14 94
50 8 34 9 62 3 73 -15 31 -15 122 1 147 12 18 12 25 2 39 -7 9 -18 17 -24 17
-15 0 -11 85 6 115 6 11 14 40 17 65 14 98 29 134 75 182 25 26 54 61 63 77
31 56 47 31 32 -49 -7 -35 -31 -51 -44 -29 -14 22 -22 5 -33 -76 -10 -67 -9
-81 6 -107 15 -26 15 -33 2 -65 -8 -19 -15 -48 -15 -63 0 -29 23 -56 39 -46 5
4 12 2 16 -4 7 -11 -28 -94 -44 -104 -6 -4 -11 -18 -11 -31 0 -14 -12 -54 -26
-89 -14 -36 -27 -73 -28 -83 -6 -31 13 -53 44 -53 24 0 30 -4 30 -21 0 -31 24
-49 64 -49 43 0 47 -17 16 -68 -11 -18 -20 -43 -20 -55 0 -13 -9 -42 -20 -65
-24 -50 -27 -102 -5 -102 8 0 15 -4 15 -10 0 -5 14 -10 30 -10 25 0 30 -4 30
-25 0 -14 -4 -33 -9 -43 -5 -9 -18 -36 -31 -60 -50 -97 23 -177 93 -104 24 25
27 35 22 68 -8 50 17 126 73 221 42 72 71 94 96 74 8 -7 35 -9 73 -5 57 6 60
5 85 -25 15 -17 30 -31 35 -31 12 -1 53 -37 53 -48 0 -12 61 -22 89 -15 14 3
22 17 26 46 7 37 5 43 -26 70 -32 27 -34 33 -31 81 4 55 4 55 -4 195 -4 65
-11 103 -25 127 -23 43 -24 81 -2 106 21 23 23 94 4 171 -13 53 -13 59 5 80
35 40 45 68 39 98 -5 20 -1 43 11 67 10 22 17 56 16 83 -2 60 14 77 55 56 36
-19 174 -164 193 -203 14 -29 60 -89 108 -140 12 -14 22 -27 22 -31 0 -3 13
-22 30 -43 16 -21 30 -42 30 -47 0 -6 10 -21 23 -35 29 -31 67 -95 67 -112 0
-7 9 -21 20 -31 11 -10 22 -33 26 -51 3 -19 10 -36 14 -39 8 -5 30 -48 105
-210 18 -38 39 -90 46 -115 7 -25 21 -57 30 -71 10 -14 25 -58 34 -97 9 -40
21 -74 26 -77 5 -4 9 -21 9 -40 0 -19 6 -38 14 -42 7 -4 16 -31 19 -60 3 -28
10 -60 15 -70 11 -21 40 -129 52 -193 5 -25 18 -67 30 -94 11 -27 18 -56 15
-64 -5 -13 9 -58 50 -157 7 -16 16 -46 20 -65 3 -19 10 -44 14 -55 5 -11 14
-45 20 -75 22 -103 34 -145 48 -165 7 -11 13 -28 13 -38 0 -13 5 -17 15 -13
16 6 17 1 6 -28 -7 -19 5 -96 32 -196 8 -30 18 -80 22 -110 7 -48 44 -141 46
-115 0 6 5 -3 10 -20 5 -17 5 -32 0 -35 -11 -6 4 -95 29 -170 10 -30 21 -80
25 -110 4 -30 11 -65 16 -77 9 -25 30 -203 35 -303 4 -85 14 -141 24 -135 15
9 20 -67 19 -280 -1 -274 -2 -262 21 -285 15 -15 33 -20 70 -20 85 0 151 41
189 117 24 49 27 85 7 116 -30 48 -45 214 -36 422 3 55 -3 133 -13 200 -9 61
-24 166 -33 235 -8 69 -26 159 -40 200 -13 41 -24 88 -24 105 0 16 -7 52 -15
79 -8 26 -18 69 -21 95 -3 25 -10 56 -15 69 -5 13 -9 36 -9 51 0 16 -14 77
-30 137 -41 148 -47 170 -60 239 -17 87 -32 149 -40 160 -4 6 -13 36 -20 68
-7 31 -17 57 -22 57 -4 0 -8 16 -8 36 0 20 -11 58 -25 86 -14 27 -25 57 -25
65 0 9 -11 36 -25 60 -14 23 -23 43 -20 43 3 0 -1 10 -9 21 -8 12 -12 28 -9
35 3 8 -7 40 -21 72 -15 31 -33 71 -40 87 -40 90 -59 125 -68 125 -5 0 -8 7
-8 14 0 13 -49 121 -80 178 -6 10 -10 25 -10 33 0 8 -4 15 -9 15 -5 0 -12 16
-15 35 -4 19 -13 40 -20 48 -7 7 -17 23 -20 35 -4 12 -12 22 -17 22 -6 0 -7 4
-4 10 3 5 -1 20 -10 33 -8 13 -13 26 -10 29 3 3 -1 11 -10 18 -8 7 -15 23 -15
36 0 28 -20 74 -32 74 -4 0 -8 5 -8 11 0 9 -21 47 -97 174 -6 11 -20 36 -29
55 -10 19 -31 57 -46 83 -15 26 -28 52 -28 57 0 17 70 12 76 -5 4 -9 19 -15
39 -15 50 0 65 -9 65 -39 0 -15 10 -38 22 -50 18 -20 28 -23 69 -18 62 8 68
-2 63 -108 -4 -95 8 -115 67 -115 62 0 71 17 67 132 l-2 100 41 39 c23 21 51
39 62 39 11 0 29 13 40 28 20 29 20 55 -1 99 -13 26 15 70 47 75 25 4 49 52
41 84 -4 16 -18 29 -36 36 -36 12 -37 15 -5 48 27 28 32 58 18 105 -10 31 -23
35 -70 20 -30 -10 -29 8 2 39 30 30 40 66 28 103 -8 24 -14 28 -44 25 -19 -2
-43 -12 -54 -21 -46 -41 -175 -107 -175 -91 0 13 83 89 97 90 6 0 14 9 18 19
3 11 21 25 40 31 37 12 41 25 29 89 -6 27 -11 31 -39 31 -39 0 -120 -43 -141
-75 -17 -25 -41 -38 -55 -29 -11 7 8 44 23 44 15 0 107 69 118 89 6 12 4 31
-5 57 -11 33 -18 39 -45 42 -24 3 -40 -3 -61 -24 -22 -21 -29 -24 -29 -11 0 8
4 18 9 21 11 7 2 86 -12 104 -6 8 -21 10 -43 6 -19 -3 -34 -4 -34 -1 0 2 12
26 26 51 20 35 25 55 20 78 -12 62 -47 74 -111 38 -20 -11 -42 -20 -50 -20
-29 0 -15 39 25 71 29 23 40 40 40 59 0 38 24 57 45 37 8 -9 15 -20 15 -24 0
-17 59 -53 87 -53 45 0 73 26 73 66 0 19 5 36 13 38 6 1 35 10 62 19 43 14 51
15 61 2 6 -8 29 -17 51 -21 58 -9 83 17 83 86 0 28 -4 50 -10 50 -5 0 -10 7
-10 15 0 21 11 19 61 -10 74 -42 128 -32 165 31 10 15 16 17 30 8 36 -21 86
15 107 76 l15 45 63 -3 c35 -2 69 -8 76 -14 15 -12 84 -2 108 16 16 11 26 68
26 141 -1 35 20 85 35 85 15 0 54 -73 54 -101 0 -10 5 -21 10 -24 6 -3 10 -17
10 -29 0 -16 13 -32 41 -50 36 -24 75 -32 67 -15 -2 4 6 17 17 29 29 32 32
118 6 161 -15 24 -21 51 -21 91 0 82 4 89 52 81 37 -5 43 -3 74 31 18 20 41
37 51 38 10 0 23 2 30 2 6 1 21 10 32 20 18 16 21 31 21 98 l0 78 40 -6 c48
-8 74 10 97 68 13 34 17 36 48 31 50 -8 65 20 92 175 7 40 19 49 42 28 28 -26
82 -30 107 -9 23 20 54 106 63 172 7 51 30 72 60 54 10 -6 35 -15 54 -18 32
-6 37 -4 51 24 9 16 16 38 16 49 0 10 6 26 13 36 12 17 14 17 45 -1 42 -24 42
-23 -9 -140 -11 -24 -19 -47 -19 -52 0 -5 -7 -12 -15 -15 -9 -3 -22 -21 -30
-40 -8 -19 -24 -41 -36 -50 -20 -13 -21 -21 -16 -75 4 -51 1 -71 -23 -128 -36
-87 -59 -132 -82 -162 -10 -13 -18 -36 -18 -52 0 -15 -4 -31 -10 -34 -5 -3
-10 -17 -10 -30 0 -13 -4 -26 -9 -30 -5 -3 -19 -37 -31 -75 -12 -39 -33 -92
-47 -118 -28 -50 -55 -142 -54 -179 0 -12 -3 -24 -8 -27 -5 -3 -21 -45 -36
-93 -15 -49 -31 -97 -36 -108 -28 -67 -58 -145 -69 -180 -6 -22 -18 -55 -27
-73 -8 -19 -23 -66 -34 -105 -10 -40 -26 -94 -34 -122 -24 -82 -47 -187 -41
-192 2 -3 0 -17 -5 -31 -6 -14 -19 -69 -30 -121 -11 -53 -24 -114 -29 -136 -6
-22 -14 -74 -20 -115 -5 -41 -17 -118 -25 -170 -9 -52 -18 -117 -20 -145 -2
-27 -7 -63 -10 -80 -4 -16 -13 -79 -21 -140 -8 -60 -19 -128 -25 -150 -6 -22
-14 -89 -19 -150 -6 -60 -14 -128 -19 -150 -5 -22 -9 -60 -10 -85 0 -25 -5
-74 -10 -110 -24 -165 -32 -232 -36 -328 -2 -56 -7 -107 -11 -114 -4 -6 -11
-63 -15 -127 -13 -173 -26 -281 -39 -331 -7 -25 -12 -101 -12 -170 0 -69 -7
-167 -15 -218 -7 -52 -11 -102 -8 -112 3 -11 2 -28 -4 -38 -10 -18 -14 -77
-26 -319 -3 -57 -10 -115 -16 -130 -6 -16 -13 -95 -16 -178 -14 -471 -58 -987
-90 -1065 -7 -16 -8 -45 -2 -83 6 -34 6 -90 0 -139 -13 -116 -14 -289 -2 -321
11 -28 47 -51 96 -61 26 -5 33 -1 51 27 11 18 26 55 33 82 7 28 17 59 21 70
11 26 28 177 36 325 4 81 12 127 25 156 23 48 23 58 7 197 -9 84 -9 115 0 141
14 39 16 75 13 281 -4 303 4 527 19 556 5 8 11 88 14 177 3 88 10 171 15 184
5 13 9 51 10 84 0 34 4 72 9 85 5 13 9 68 11 122 1 55 6 109 10 120 8 21 24
152 25 207 2 48 19 145 28 156 13 17 18 71 23 234 2 86 10 167 19 199 8 30 14
57 14 60 -1 3 4 19 10 34 7 16 12 52 12 80 0 29 6 70 14 92 8 22 19 87 25 145
7 58 14 119 16 135 2 17 4 33 4 38 2 16 97 7 128 -13 29 -17 33 -25 39 -80 6
-52 11 -63 31 -73 13 -6 26 -20 28 -31 11 -46 56 -276 59 -299 1 -10 10 -25
19 -34 13 -14 21 -15 42 -5 35 16 56 15 69 -4 16 -21 78 -34 102 -21 28 15 34
28 34 69 0 21 6 42 13 48 6 5 22 18 34 28 16 12 24 31 27 65 2 27 7 51 11 55
4 4 31 7 61 8 29 0 65 6 78 14 50 26 76 -30 35 -73 -12 -12 -28 -37 -36 -56
-8 -19 -30 -57 -49 -85 -19 -28 -34 -54 -34 -59 0 -5 -11 -23 -25 -41 -14 -18
-25 -37 -25 -43 0 -5 -8 -18 -19 -29 -10 -11 -24 -38 -31 -59 -7 -21 -26 -61
-41 -87 -16 -26 -38 -71 -51 -100 -12 -29 -25 -55 -28 -58 -4 -3 -26 -45 -50
-95 -24 -49 -52 -101 -62 -114 -10 -13 -18 -31 -18 -41 0 -10 -9 -29 -20 -43
-11 -14 -20 -36 -20 -49 0 -12 -7 -32 -15 -42 -8 -11 -13 -28 -10 -37 3 -10 1
-20 -4 -23 -9 -6 -25 -54 -77 -236 -17 -58 -24 -79 -42 -120 -6 -14 -14 -43
-17 -65 -4 -21 -13 -52 -22 -68 -8 -16 -30 -104 -49 -196 -18 -91 -38 -176
-44 -189 -5 -12 -13 -55 -16 -95 -4 -40 -12 -81 -17 -92 -6 -11 -14 -45 -18
-75 -4 -30 -10 -66 -14 -80 -15 -56 -37 -212 -45 -325 -5 -66 -12 -131 -15
-145 -4 -14 -11 -65 -15 -115 -5 -49 -11 -108 -15 -130 -3 -22 -2 -66 2 -99 8
-58 8 -58 52 -73 l43 -15 35 34 34 33 -1 100 c0 116 6 151 31 176 10 10 21 31
24 46 3 16 10 44 16 63 5 19 14 96 19 170 5 74 15 160 23 190 8 30 20 89 26
130 7 41 17 102 22 135 6 33 14 87 18 120 4 33 18 96 30 140 12 44 27 101 31
127 5 27 19 68 30 92 11 25 20 52 20 61 0 9 6 29 14 43 23 46 56 136 56 157 0
11 10 47 21 80 12 33 27 87 35 120 8 32 21 66 28 75 7 8 16 30 20 49 14 77 90
242 194 424 12 21 22 42 22 48 0 5 15 32 33 59 17 26 50 78 72 114 22 36 43
65 47 66 3 0 17 19 31 43 14 23 35 53 46 66 12 13 21 28 21 34 0 10 90 107
100 107 4 0 17 -9 30 -20 13 -11 31 -20 41 -20 10 0 20 -4 23 -9 3 -5 26 -18
52 -30 53 -25 58 -54 9 -59 -17 -2 -38 -10 -47 -19 -14 -12 -25 -13 -73 -3
-31 6 -62 9 -70 7 -17 -7 -45 -64 -45 -92 0 -25 -17 -35 -60 -35 -24 0 -28 -4
-34 -40 -8 -51 9 -80 49 -81 16 -1 43 -2 60 -3 18 -1 31 -7 33 -17 3 -17 -50
-29 -129 -29 -49 0 -69 -27 -69 -93 0 -34 -6 -57 -20 -74 -26 -33 -25 -34 9
-70 l29 -31 104 3 c56 1 109 -2 116 -8 6 -5 12 -20 12 -33 0 -32 56 -94 85
-94 16 0 26 -9 35 -32 26 -73 86 -186 111 -210 8 -7 29 -24 47 -37 28 -20 32
-20 32 -5 0 10 8 27 19 38 21 23 54 126 47 148 -18 56 -16 68 6 68 23 1 23 1
2 13 -12 7 -19 17 -17 24 2 6 -5 20 -17 31 l-20 19 27 -3 c16 -2 35 -4 43 -6
25 -4 87 33 100 60 6 14 11 53 10 86 -1 34 -1 67 -1 74 1 19 36 14 56 -8 28
-30 52 -34 81 -11 38 30 50 26 62 -19 5 -23 6 -40 1 -40 -5 0 -9 -9 -9 -20 0
-11 7 -20 15 -20 8 0 15 -7 15 -15 0 -8 -6 -15 -14 -15 -16 0 -36 -71 -36
-128 0 -56 20 -70 64 -43 l34 21 20 -24 c22 -29 57 -26 65 5 6 21 41 26 53 7
4 -6 6 -35 5 -64 -2 -60 9 -90 39 -99 21 -7 52 17 63 48 9 23 36 33 57 19 10
-6 33 -14 53 -17 31 -6 38 -3 58 24 18 25 22 42 20 83 -3 55 -16 99 -32 109
-11 6 -28 70 -29 103 0 17 1 17 26 1 40 -26 64 -48 64 -60 0 -27 46 -66 83
-70 20 -1 39 1 42 5 6 10 63 -3 93 -21 21 -13 25 -12 42 9 32 39 16 82 -30 82
-16 0 -41 10 -55 23 -23 19 -25 25 -16 50 18 46 13 88 -15 124 -14 18 -31 33
-37 33 -16 0 -47 36 -47 54 0 7 -7 27 -15 43 -13 25 -13 36 -4 57 11 24 9 30
-19 59 -30 31 -30 33 -15 58 24 39 10 69 -51 117 -48 37 -55 46 -50 70 4 17
-4 46 -20 82 -26 55 -26 55 -6 72 15 12 18 23 14 46 -4 20 -1 32 7 37 8 5 11
4 7 0 -5 -5 9 -19 30 -31 39 -24 73 -23 104 3 13 12 20 12 37 1 12 -7 23 -20
26 -28 3 -8 23 -33 45 -55 21 -22 39 -45 40 -51 1 -30 42 -93 62 -96 39 -6 86
22 99 59 6 18 14 33 17 33 23 1 44 33 49 74 3 38 1 46 -16 56 -18 9 -51 58
-51 75 0 17 28 -3 89 -63 52 -52 80 -72 115 -82 57 -16 68 -11 84 34 12 33 12
42 -7 81 -12 25 -21 50 -21 57 0 6 -8 20 -17 30 -10 12 -13 22 -7 28 10 10
113 29 239 43 18 2 44 51 45 83 0 28 -29 48 -66 46 -22 -2 -43 -7 -48 -12 -15
-15 -35 -12 -68 11 -27 20 -30 26 -25 62 4 27 0 48 -10 64 -15 22 -19 23 -114
19 -55 -2 -99 0 -99 4 0 10 47 30 70 30 31 0 80 48 80 80 0 39 -22 54 -72 47
-45 -6 -78 5 -78 27 0 17 -29 42 -59 49 -13 3 -52 0 -85 -8 -64 -15 -134 -19
-160 -9 -11 4 -16 19 -16 51 0 62 -16 72 -112 73 -84 0 -86 1 -66 56 14 40 23
44 74 35 66 -12 104 9 104 59 0 35 17 50 57 50 19 0 48 7 64 16 27 14 30 19
27 56 -3 38 -1 42 25 49 30 8 77 -4 88 -23 4 -5 28 -14 55 -19 27 -5 56 -12
65 -14 13 -4 19 5 28 42 15 58 7 66 -83 82 -34 6 -80 19 -102 30 -21 10 -56
24 -76 32 -21 7 -40 19 -43 27 -4 11 11 13 83 8 111 -6 172 -16 172 -27 0 -12
42 -11 75 1 14 5 38 23 53 39 20 22 39 31 70 34 23 2 51 12 61 21 12 11 31 16
48 15 38 -4 83 30 83 63 0 32 -27 56 -62 56 -43 -1 -79 28 -72 56 7 28 -29
104 -54 113 -9 4 -19 10 -22 15 -7 10 -93 14 -108 4 -26 -16 -18 14 12 43 29
28 39 32 66 26 25 -6 37 -2 56 16 25 23 33 72 14 84 -5 3 -10 24 -10 46 0 65
-42 87 -100 54 -14 -8 -43 -14 -65 -15 -45 0 -97 -28 -138 -74 -19 -20 -30
-27 -33 -18 -8 17 -59 15 -78 -3 -8 -9 -18 -32 -21 -53 -3 -20 -15 -68 -27
-107 -11 -38 -22 -80 -24 -93 -3 -30 -19 -48 -57 -67 -56 -28 -69 -16 -46 42
21 51 26 67 43 125 9 32 22 63 29 70 20 21 40 94 33 122 -5 20 -13 26 -34 26
-24 0 -30 -7 -50 -57 -13 -32 -38 -83 -56 -113 l-33 -55 -66 3 c-40 1 -68 -2
-68 -8 -1 -5 -2 -15 -3 -20 0 -6 -20 -32 -42 -58 -23 -26 -56 -64 -74 -85 -50
-58 -67 -64 -99 -33 -42 41 -94 33 -129 -18 -15 -21 -34 -36 -54 -40 -16 -3
-45 -22 -62 -41 l-32 -34 -49 17 c-46 17 -50 20 -53 54 -2 27 -9 39 -24 44
-17 5 -19 12 -15 40 4 23 -1 51 -14 81 -16 37 -23 44 -39 39 -11 -3 -29 -9
-40 -12 -17 -6 -20 -2 -20 29 0 44 35 124 60 137 13 7 20 21 20 41 0 35 -32
52 -89 47 l-35 -3 -2 52 c-1 58 -22 88 -54 78 -17 -6 -20 -2 -20 29 0 24 5 36
18 40 9 3 39 26 66 51 39 37 47 50 43 71 -2 15 -1 41 4 59 11 37 124 155 150
155 9 0 22 7 29 15 17 21 37 19 58 -6 9 -12 33 -41 53 -64 20 -24 45 -66 55
-95 19 -54 74 -120 100 -120 8 0 26 12 39 26 23 24 24 32 20 113 -2 47 -4 93
-4 101 1 8 2 40 2 70 1 40 6 59 19 68 9 7 20 29 23 50 3 20 11 53 17 74 9 31
7 45 -13 95 -13 32 -29 67 -36 78 -14 23 -2 56 36 97 12 12 19 28 16 36 -5 13
-7 23 -20 85 -2 12 -23 41 -45 65 -36 37 -41 48 -39 81 2 22 -2 45 -8 53 -23
29 -24 68 -3 98 25 35 25 46 0 95 -11 22 -20 49 -20 61 0 36 -18 74 -35 74
-16 0 -74 39 -105 71 -8 8 -31 37 -49 65 -19 27 -38 51 -41 54 -4 3 -10 12
-14 20 -4 8 -17 35 -30 60 -18 35 -21 49 -13 65 10 19 10 19 24 -2 8 -12 26
-34 39 -48 13 -14 24 -34 24 -45 0 -22 51 -50 91 -50 40 0 58 46 52 130 -5 67
3 150 15 150 4 0 18 -20 31 -45 13 -25 28 -45 32 -45 5 0 9 -15 9 -33 0 -21 8
-41 20 -52 11 -10 20 -26 20 -37 0 -10 5 -18 10 -18 6 0 10 -9 10 -20 0 -11 7
-20 15 -20 8 0 15 -5 15 -11 0 -17 32 -38 57 -39 14 0 33 14 50 35 33 42 45
43 81 10 15 -14 29 -25 33 -25 11 0 62 60 56 66 -8 9 11 44 24 44 5 0 18 -19
29 -42 11 -24 24 -50 28 -58 24 -42 32 -62 32 -80 0 -13 13 -28 34 -41 40 -24
55 -59 64 -157 6 -59 10 -67 30 -70 12 -2 22 -8 22 -13 0 -17 37 -9 57 14 15
16 22 42 28 97 3 41 11 83 16 93 10 17 12 17 45 -4 62 -38 124 3 144 95 6 28
18 61 26 74 15 23 15 40 2 142 -4 32 34 51 111 56 34 2 60 10 67 19 6 8 14 52
17 97 6 82 6 83 -23 110 -18 17 -30 38 -30 53 0 20 -5 25 -27 27 -54 2 -87 -4
-139 -28 -63 -29 -74 -30 -74 -6 -1 9 -7 28 -14 42 -10 17 -11 30 -5 42 16 29
0 88 -22 88 -11 0 -19 4 -19 10 0 6 -18 7 -46 3 l-45 -6 3 38 c3 36 1 40 -29
48 -27 8 -43 4 -106 -27 -91 -44 -114 -46 -123 -8 -9 36 -23 52 -46 52 -16 0
-18 4 -11 23 12 32 9 107 -4 115 -6 4 -13 18 -14 32 -4 22 -10 25 -48 28 -25
2 -57 -3 -76 -12 -67 -32 -91 -24 -70 26 4 11 0 23 -13 34 -37 32 -21 42 128
84 25 7 57 17 71 23 27 11 54 59 51 90 -3 27 17 59 33 54 7 -3 16 -2 21 2 5 4
41 16 79 26 39 10 75 22 81 27 15 11 27 64 24 109 -2 43 30 69 84 69 19 0 38
5 41 10 3 6 16 10 28 10 28 0 69 28 61 41 -3 5 0 8 7 7 7 -2 13 15 16 47 5 56
25 85 59 85 36 0 54 36 54 107 l0 63 -34 0 c-38 0 -43 8 -60 85 -15 66 -5 118
39 211 27 57 35 86 33 117 -3 37 -6 42 -36 49 -21 6 -40 5 -54 -3 -17 -9 -24
-9 -32 3 -18 25 -54 27 -96 7 -21 -10 -53 -19 -71 -19 l-32 0 7 48 c18 130 19
174 5 183 -29 18 -57 9 -87 -28z m-122 -495 c-1 -22 -25 -102 -35 -119 -11
-18 -55 -44 -55 -32 0 4 11 31 25 58 13 28 25 56 25 63 0 14 21 41 33 42 4 0
7 -6 7 -12z m-1860 -409 c0 -5 -4 -9 -10 -9 -5 0 -10 7 -10 16 0 8 5 12 10 9
6 -3 10 -10 10 -16z m2032 -181 c-6 -24 -32 -23 -32 1 0 13 6 19 19 18 12 -1
17 -7 13 -19z m-642 -227 c0 -15 -13 -23 -52 -35 -29 -8 -55 -13 -58 -9 -7 7
35 35 74 49 17 7 32 12 34 13 1 0 2 -8 2 -18z m-1395 -152 c7 -11 -22 -49 -37
-49 -10 0 -11 44 -1 53 10 10 31 8 38 -4z m85 -58 c0 -31 -16 -33 -34 -6 -16
24 -16 25 9 25 18 0 25 -5 25 -19z m-979 -187 c32 -25 59 -50 59 -55 0 -16 29
-41 40 -34 17 10 11 -11 -7 -28 -20 -18 -98 -47 -127 -47 -17 0 -15 5 12 33
23 24 31 40 29 62 -2 36 -18 55 -45 55 -19 0 -46 42 -35 54 10 9 11 9 74 -40z
m838 8 c14 -26 -2 -46 -30 -38 -38 9 -52 23 -46 40 9 23 64 21 76 -2z m-317
-19 c26 -23 23 -43 -7 -43 -14 0 -28 -1 -32 -2 -13 -5 -15 32 -3 47 16 19 19
19 42 -2z m1338 -7 c0 -16 -37 -46 -57 -46 -18 0 -16 20 4 42 19 22 53 24 53
4z m-967 -242 c8 -8 -20 -64 -32 -64 -40 0 -56 40 -23 59 19 12 46 14 55 5z
m997 -244 c0 -5 -4 -10 -10 -10 -5 0 -10 5 -10 10 0 6 5 10 10 10 6 0 10 -4
10 -10z m60 -65 c10 -12 10 -19 1 -28 -9 -9 -14 -9 -21 3 -22 34 -4 54 20 25z
m-1470 -39 c0 -19 -29 -48 -44 -43 -21 7 -18 37 6 46 32 14 38 13 38 -3z
m-388 -13 c19 -22 40 -106 32 -127 -9 -23 -23 -20 -54 14 -15 17 -33 30 -39
30 -21 0 -12 61 12 81 28 23 30 23 49 2z m-359 -250 c8 -44 3 -51 -23 -35 -11
7 -29 12 -40 12 -26 0 -25 8 2 37 32 35 54 30 61 -14z m80 -307 c5 -14 -10
-36 -25 -36 -4 0 -8 11 -8 25 0 27 24 35 33 11z m1809 -151 c-17 -37 -15 -44
13 -55 33 -12 41 -34 23 -63 -8 -12 -22 -44 -33 -72 -10 -27 -26 -61 -35 -75
-9 -14 -19 -32 -23 -41 -7 -21 28 -54 66 -63 24 -6 27 -10 20 -29 -4 -12 -8
-44 -9 -72 -1 -61 -8 -78 -51 -132 -43 -54 -43 -89 -2 -126 17 -15 40 -27 51
-27 11 0 33 -9 50 -21 24 -18 28 -26 23 -50 -5 -21 -2 -31 9 -35 20 -8 21 -48
1 -64 -8 -7 -15 -18 -15 -25 0 -19 -37 -47 -56 -43 -10 1 -25 17 -34 33 -19
34 -35 40 -72 26 -19 -7 -32 -25 -47 -66 -12 -31 -21 -68 -21 -83 0 -33 -21
-94 -39 -116 -19 -22 -58 -21 -66 3 -3 11 -12 22 -20 25 -16 6 -21 56 -6 56
37 0 57 94 26 120 -10 8 -15 27 -14 49 2 34 -11 88 -33 137 -5 11 -10 36 -11
55 -2 29 1 34 23 37 56 6 67 13 84 51 14 30 15 43 7 59 -6 11 -11 34 -11 50 0
16 -7 35 -15 42 -9 7 -15 23 -13 34 2 17 11 22 43 24 29 2 45 10 58 28 22 29
33 86 22 111 -4 10 -7 39 -6 64 2 31 -3 50 -13 58 -9 8 -16 25 -16 38 0 21 3
23 14 14 18 -15 46 -2 75 35 15 19 21 41 21 78 0 53 16 84 34 66 6 -6 5 -19
-2 -35z m-4424 -280 c7 -16 20 -25 34 -25 22 -1 22 -1 4 -15 -40 -30 -93 -4
-82 39 8 33 29 33 44 1z m1522 -27 c0 -13 -9 -34 -19 -47 -14 -19 -24 -22 -45
-17 -36 9 -33 36 7 63 42 28 57 28 57 1z m-971 -38 c12 -41 2 -80 -21 -80 -5
0 -26 -14 -45 -31 -38 -33 -53 -32 -35 4 6 12 21 45 33 72 38 87 50 94 68 35z
m3214 16 c6 -15 -1 -26 -15 -26 -4 0 -8 9 -8 20 0 23 15 27 23 6z m1191 -53
c4 -9 2 -21 -3 -26 -15 -15 -41 0 -41 23 0 25 35 28 44 3z m-4884 -70 c0 -13
-3 -13 -15 -3 -8 7 -12 16 -9 21 8 13 24 1 24 -18z m90 -162 c0 -18 -6 -31
-17 -35 -24 -10 -35 7 -24 37 14 37 41 35 41 -2z m3534 -63 c-8 -25 -10 -33
-12 -61 -1 -10 -10 -21 -19 -24 -10 -4 -35 -24 -55 -45 -37 -38 -65 -50 -55
-24 3 8 9 31 13 52 4 20 20 56 36 80 22 33 36 43 61 46 40 4 40 4 31 -24z
m246 -244 c25 -37 57 -78 71 -93 15 -14 29 -36 33 -48 4 -13 13 -23 19 -23 23
-1 59 -39 53 -56 -3 -9 -13 -14 -20 -11 -8 3 -26 -3 -39 -14 -14 -10 -30 -19
-36 -19 -6 0 -11 -6 -11 -13 0 -7 -7 -23 -16 -35 -12 -18 -19 -21 -30 -11 -11
9 -15 7 -20 -7 -4 -11 -13 -26 -21 -35 -12 -14 -10 -21 12 -48 15 -17 35 -31
44 -31 9 0 26 -6 36 -14 18 -13 17 -16 -28 -42 -60 -37 -69 -65 -33 -103 26
-27 36 -71 16 -71 -5 0 -10 -18 -10 -40 0 -34 4 -41 25 -46 13 -3 29 -12 36
-20 6 -8 24 -14 39 -14 41 0 44 -24 7 -54 -17 -14 -34 -26 -39 -26 -14 0 -8
-55 8 -79 16 -22 16 -24 0 -33 -17 -10 -23 -58 -6 -58 6 0 10 -9 10 -20 0 -11
4 -20 8 -20 19 0 83 -67 77 -81 -8 -21 16 -64 66 -116 41 -43 42 -46 27 -70
-13 -21 -13 -32 -1 -76 7 -28 22 -60 33 -72 29 -30 25 -43 -17 -60 -46 -20
-65 -11 -134 58 -29 30 -53 46 -60 41 -8 -5 -9 -3 -4 5 5 9 -1 12 -21 9 -26
-3 -29 -8 -32 -40 -3 -33 -7 -38 -27 -38 -13 0 -32 8 -42 19 -10 10 -29 24
-42 31 -22 12 -27 10 -48 -16 -37 -46 -30 -68 37 -121 63 -50 75 -73 38 -73
-24 0 -128 48 -128 60 0 13 -93 39 -134 37 -23 -1 -41 4 -44 11 -2 7 -8 12
-14 12 -7 0 -7 -4 0 -12 18 -22 14 -29 -20 -47 -29 -14 -33 -21 -33 -56 0 -34
5 -43 32 -60 41 -25 44 -48 6 -39 -16 4 -29 11 -31 16 -2 4 -10 8 -17 8 -8 0
-18 6 -22 13 -4 6 -20 18 -35 26 -25 13 -28 12 -58 -23 -18 -20 -35 -36 -39
-36 -8 0 -30 21 -64 64 l-23 28 -27 -23 c-24 -22 -33 -53 -29 -101 1 -9 12
-20 25 -24 12 -4 40 -22 63 -40 23 -19 46 -34 53 -34 13 0 15 -17 1 -25 -10
-6 -92 18 -158 47 l-44 19 6 57 c9 88 26 316 31 425 3 54 10 107 16 118 5 11
19 74 29 142 11 67 29 165 39 217 11 52 24 120 30 150 18 102 45 197 90 325 5
17 19 62 30 100 60 207 70 242 75 268 6 25 36 40 36 17 0 -5 7 -10 15 -10 8 0
15 -4 15 -10 0 -5 19 -10 41 -10 33 0 51 7 83 33 39 32 72 46 125 53 39 5 53
13 48 28 -6 16 1 26 17 26 6 0 31 -30 56 -66z m-3796 -177 c12 -19 3 -32 -19
-24 -17 7 -21 51 -3 45 6 -2 16 -12 22 -21z m3944 -335 c3 -21 2 -22 -17 -10
-25 16 -28 41 -3 36 9 -2 18 -14 20 -26z m-4635 -26 c3 -11 -30 -32 -38 -25
-3 4 -3 14 1 23 7 17 33 19 37 2z m4685 -19 c2 -10 -3 -17 -12 -17 -10 0 -16
9 -16 21 0 24 23 21 28 -4z m1827 -19 c14 -6 25 -16 25 -23 0 -16 -45 -39 -59
-31 -17 11 -13 66 5 66 2 0 15 -5 29 -12z m-1453 -90 c-7 -7 -12 -8 -12 -2 0
14 12 26 19 19 2 -3 -1 -11 -7 -17z m962 -103 c14 -36 -14 -71 -87 -108 -67
-35 -97 -44 -97 -32 0 21 34 77 67 113 33 34 47 42 76 42 21 0 37 -6 41 -15z
m-876 -18 c2 -10 -2 -25 -9 -33 -10 -12 -14 -12 -26 6 -8 12 -12 28 -9 36 8
20 40 14 44 -9z m-417 -52 c19 -8 41 -19 49 -25 8 -5 27 -11 41 -14 41 -9 68
-90 34 -103 -9 -3 -24 2 -34 11 -10 9 -25 16 -34 16 -9 0 -29 18 -43 40 -15
22 -35 40 -44 40 -11 0 -20 10 -22 25 -6 29 5 31 53 10z m922 -137 c6 -18 -14
-59 -27 -55 -16 5 -19 36 -6 52 15 18 27 19 33 3z m549 -130 c57 -17 64 -23
46 -41 -11 -12 -24 -11 -86 3 -78 18 -99 31 -87 50 8 13 55 9 127 -12z m-292
-98 c10 -5 37 -12 60 -14 23 -2 46 -8 53 -15 6 -6 9 -11 7 -12 -45 -8 -60 -8
-60 -1 0 5 -12 9 -27 9 -40 -1 -73 12 -73 29 0 16 14 18 40 4z m-592 -40 c7 0
12 -7 12 -15 0 -8 -4 -15 -9 -15 -5 0 -14 -13 -20 -30 -15 -45 -35 -37 -50 20
-10 41 -10 54 0 66 11 13 15 12 34 -6 12 -11 27 -20 33 -20z m-3479 -112 l1
-48 -30 32 c-16 17 -31 37 -31 44 -1 8 -2 19 -3 26 -1 7 10 15 24 18 31 8 38
-7 39 -72z m-1457 -125 c1 -32 1 -71 0 -88 -1 -16 -2 -42 -2 -57 0 -37 -10
-35 -41 10 -46 64 -44 87 11 170 23 34 30 27 32 -35z m5292 -19 c19 -7 21 -30
4 -36 -7 -3 -37 -6 -65 -7 -51 -2 -53 -1 -53 23 0 24 3 26 49 26 27 0 56 -3
65 -6z m570 -334 c-13 -13 -44 -2 -44 15 0 20 23 25 40 9 10 -10 11 -17 4 -24z
m-1361 -35 c-24 -19 -48 -19 -63 0 -17 21 -4 33 40 37 40 3 52 -16 23 -37z
m-5054 -1 c-15 -16 -25 -21 -28 -13 -2 7 4 18 15 26 30 22 39 15 13 -13z
m6109 -31 c32 -13 44 -45 21 -58 -6 -4 -8 -13 -5 -20 3 -8 -2 -19 -11 -27 -13
-10 -17 -10 -20 0 -3 6 -13 12 -24 12 -13 0 -19 7 -19 21 0 11 -9 32 -19 46
-40 50 -8 61 77 26z m-1228 -48 c0 -12 9 -34 20 -48 24 -30 25 -41 5 -64 -9
-10 -27 -32 -40 -50 -21 -26 -33 -32 -74 -35 l-49 -3 -10 65 c-5 36 -7 85 -3
110 6 43 8 45 61 66 55 21 55 21 73 2 9 -11 17 -30 17 -43z m-3895 -2 c-6 -36
-39 -83 -57 -83 -28 0 31 119 61 120 2 0 0 -17 -4 -37z m-1089 -20 c-11 -11
-19 6 -11 24 8 17 8 17 12 0 3 -10 2 -21 -1 -24z m6496 -88 c27 -25 43 -45 38
-45 -19 0 -10 -47 14 -69 14 -13 22 -29 20 -36 -3 -7 2 -25 12 -40 21 -32 29
-85 12 -85 -16 0 -78 49 -78 61 0 6 -13 29 -30 52 -16 23 -39 69 -51 102 -12
33 -26 63 -32 66 -5 4 -7 14 -4 23 11 29 50 17 99 -29z m-307 -174 c3 -5 1
-12 -5 -16 -5 -3 -10 1 -10 9 0 18 6 21 15 7z m-6370 -81 c3 -5 1 -10 -4 -10
-6 0 -11 5 -11 10 0 6 2 10 4 10 3 0 8 -4 11 -10z m5375 -21 c0 -15 -5 -20
-22 -17 -34 5 -37 38 -4 38 20 0 26 -5 26 -21z m924 -411 c-4 -34 -4 -34 -15
-15 -5 9 -7 22 -4 27 11 18 22 11 19 -12z m-176 -40 c7 -7 12 -23 12 -37 0
-32 -23 -98 -38 -113 -7 -7 -12 -18 -12 -24 0 -7 -4 -16 -10 -19 -10 -6 -7 69
4 110 3 11 8 37 11 58 6 39 13 45 33 25z m-48 -62 c0 -3 -4 -8 -10 -11 -5 -3
-10 -1 -10 4 0 6 5 11 10 11 6 0 10 -2 10 -4z m-530 -184 c0 -28 -21 -37 -50
-22 -19 10 -21 17 -15 48 4 20 9 41 13 46 8 14 52 -46 52 -72z m-94 -99 c-5
-12 -10 -13 -18 -5 -8 8 -8 15 3 28 15 18 25 4 15 -23z m-2608 -95 c-1 -7 4
-23 11 -36 15 -28 5 -82 -15 -82 -11 0 -14 15 -12 65 1 36 5 65 10 65 5 0 8
-6 6 -12z m312 -793 c0 -13 -4 -27 -10 -30 -6 -4 -10 8 -10 30 0 22 4 34 10
30 6 -3 10 -17 10 -30z"/>
<path d="M6120 4650 c0 -5 5 -10 11 -10 5 0 7 5 4 10 -3 6 -8 10 -11 10 -2 0
-4 -4 -4 -10z"/>
<path d="M2462 4740 c0 -14 2 -19 5 -12 2 6 2 18 0 25 -3 6 -5 1 -5 -13z"/>
<path d="M2500 4550 c0 -6 7 -10 15 -10 8 0 15 2 15 4 0 2 -7 6 -15 10 -8 3
-15 1 -15 -4z"/>
<path d="M1720 4459 c-7 -11 -17 -18 -25 -15 -7 2 -23 -6 -35 -19 -12 -13 -28
-21 -36 -18 -8 3 -14 -1 -14 -11 0 -9 12 -21 27 -27 22 -8 30 -6 52 13 26 23
44 45 40 50 -1 2 3 13 10 26 7 13 8 22 2 22 -6 0 -15 -9 -21 -21z"/>
<path d="M1565 4090 c-3 -5 -1 -10 4 -10 6 0 11 5 11 10 0 6 -2 10 -4 10 -3 0
-8 -4 -11 -10z"/>
<path d="M7110 2570 c0 -15 23 -60 31 -60 4 0 2 16 -4 35 -9 32 -27 48 -27 25z"/>
</g>
</svg>
