<?xml version="1.0" encoding="utf-8"?>

<!DOCTYPE svg PUBLIC "-//W3C//DTD SVG 1.1//EN" "http://www.w3.org/Graphics/SVG/1.1/DTD/svg11.dtd">
<svg version="1.1" id="Layer_1" xmlns="http://www.w3.org/2000/svg" xmlns:xlink="http://www.w3.org/1999/xlink" x="0px" y="0px"
	 viewBox="0 0 1642.099 1638.978" enable-background="new 0 0 1642.099 1638.978" xml:space="preserve">
<path d="M1609.764,753.027c-50.445-60.781-122.311-58.339-154.634-27.568c-30.801,29.322-55.953-4.328-86.52-12.61
	c-35.349-9.578-67.493-5.408-95.608,16.082c-0.617-2.977-1.263-5.943-1.937-8.898c12.568-22.684,31.295-39.096,57.312-41.768
	c57.039-5.858,97.774-34.203,116.573-68.515c24.334-44.413,72.976-69.518,121.107-66.954c2.247,0.12,4.553,1.524,5.879-1.003
	c3.084-5.882-12.084-14.503-17.941-18.331c-66.106-43.203-134.067-19.705-155.89,19.236c-20.789,37.098-54.743,12.356-86.393,13.452
	c-36.605,1.267-66.094,14.729-86.626,43.557c-1.471-2.657-2.966-5.299-4.487-7.923c5.342-25.487,18.499-46.643,42.474-56.823
	c52.778-22.41,83.349-61.503,91.199-99.831c10.162-49.616,49.247-87.941,95.991-99.676c2.182-0.548,4.801,0.115,5.322-2.692
	c1.213-6.53-15.822-10.297-22.547-12.228c-75.906-21.799-133.919,20.688-143.294,64.33c-8.931,41.577-48.67,27.943-78.59,38.319
	c-34.636,12.011-58.859,33.595-69.969,67.245c-2.175-2.098-4.368-4.176-6.584-6.231c-2.433-26.03,3.918-50.129,23.829-66.925
	c43.828-36.971,61.517-83.338,57.722-122.278c-4.907-50.335,21.075-98.512,62.346-123.542c1.924-1.167,4.621-1.306,4.292-4.141
	c-0.766-6.597-18.139-5.176-25.15-5.039c-78.957,1.543-121.872,59.241-117.966,103.709c3.721,42.363-38.27,41.047-63.803,59.781
	c-29.526,21.664-46.307,49.394-47.037,84.771c-2.716-1.375-5.444-2.73-8.191-4.053c-10.002-24.229-10.878-49.053,3.104-70.826
	c30.983-48.247,34.221-97.768,19.115-133.859c-19.557-46.728-8.844-100.408,23.162-136.43c1.494-1.682,4.031-2.61,2.881-5.222
	c-2.676-6.078-18.859,0.401-25.517,2.598c-74.996,24.748-98.995,92.533-82.157,133.873c16.042,39.384-24.472,50.504-43.348,75.932
	c-21.834,29.413-29.695,60.865-19.953,94.896c-2.976-0.503-5.963-0.977-8.958-1.423c-16.704-20.188-24.956-43.616-17.981-68.657
	c15.385-55.236,3.882-103.511-21.19-133.546c-32.454-38.879-38.051-93.33-18.081-137.196c0.932-2.048,3.083-3.682,1.214-5.839
	c-4.348-5.02-17.916,5.95-23.618,10.004c-64.367,45.752-67.324,117.6-39.047,152.141c26.938,32.906-8.498,55.473-19.041,85.335
	c-12.198,34.549-10.435,66.928,8.918,96.581c-3.008,0.391-6.006,0.811-8.995,1.259c-21.966-14.403-36.702-34.373-37.417-60.305
	c-1.579-57.317-26.8-100.057-59.612-121.368c-42.474-27.587-63.87-77.971-57.717-125.772c0.287-2.231,1.86-4.427-0.561-5.937
	c-5.635-3.515-15.366,10.966-19.62,16.521c-48.022,62.693-29.669,132.219,7.532,156.891c35.44,23.504,8.231,55.514,6.958,87.157
	c-1.471,36.588,9.743,66.993,36.94,89.62c-2.768,1.271-5.523,2.564-8.261,3.887c-25.181-7.286-45.138-22.08-53.443-46.588
	c-18.404-54.305-55.102-87.712-92.737-98.404c-48.716-13.841-84.014-55.679-92.224-103.172c-0.383-2.217,0.473-4.778-2.286-5.508
	c-6.421-1.698-11.445,14.994-13.879,21.57c-27.41,74.062,10.621,135.091,53.442,147.701c40.794,12.013,24.228,50.622,32.339,81.234
	c9.389,35.435,29.1,61.202,61.823,74.796c-2.253,2.014-4.49,4.046-6.703,6.102c-26.205,0.483-49.725-7.698-64.954-28.764
	c-33.593-46.468-78.525-67.573-117.622-66.698c-50.631,1.133-96.694-28.442-118.537-71.404c-1.02-2.005-0.957-4.706-3.808-4.59
	c-6.636,0.27-6.518,17.717-6.905,24.703c-4.363,78.868,49.98,125.958,94.603,125.386c42.522-0.545,38.072,41.231,54.846,68.092
	c19.403,31.072,45.811,49.88,81.05,53.243c-1.571,2.599-3.117,5.215-4.638,7.847c-24.739,8.116-49.639,7.3-70.443-8.374
	c-45.797-34.502-94.954-41.426-132.056-29.065c-48.049,16.007-100.782,1.322-134.318-33.293c-1.565-1.616-2.301-4.215-4.992-3.263
	c-6.261,2.214-1.01,18.836,0.683,25.64c19.074,76.636,84.876,105.633,127.359,91.931c40.472-13.054,48.534,28.178,72.48,48.901
	c27.689,23.963,58.453,34.153,93.101,26.996c-0.727,2.94-1.426,5.891-2.097,8.852c-21.166,14.987-45.162,21.648-69.762,12.767
	c-53.932-19.47-102.931-11.607-134.756,11.151c-41.193,29.456-95.911,30.971-138.164,7.777c-1.972-1.083-3.441-3.349-5.732-1.647
	c-5.33,3.961,4.587,18.297,8.211,24.3c40.814,67.607,112.24,75.924,148.798,50.307c34.827-24.404,54.683,12.619,83.674,25.364
	c33.556,14.752,65.989,15.408,97.017-1.697c0.166,3.02,0.357,6.034,0.58,9.038c-15.863,20.658-36.844,34.088-62.969,32.853
	c-57.275-2.709-101.78,19.248-125.483,50.375c-30.681,40.29-82.521,57.866-129.733,48.156c-2.204-0.453-4.275-2.186-5.963,0.116
	c-3.926,5.356,9.788,16.142,15.008,20.8c58.928,52.573,129.633,39.467,157.015,4.213c26.086-33.585,55.974-4.059,87.433-0.426
	c36.37,4.201,67.525-4.707,92.119-30.128c1.061,2.861,2.144,5.711,3.259,8.545c-9.016,24.2-25.113,43.265-50.441,49.785
	c-55.529,14.294-91.584,48.393-105.06,85.124c-17.443,47.545-61.8,79.619-109.775,84.256c-2.239,0.217-4.73-0.829-5.664,1.868
	c-2.173,6.276,14.097,12.534,20.472,15.452c71.807,32.868,135.507-0.496,151.281-42.255c15.028-39.782,52.29-20.377,83.423-26.178
	c36.029-6.713,63.192-24.436,79.195-56.037c1.841,2.397,3.709,4.773,5.595,7.133c-1.483,26.222-11.436,49.022-33.537,62.607
	c-48.848,30.026-73.251,73.238-75.301,112.309c-2.654,50.578-35.591,94.299-80.063,112.87c-2.076,0.867-4.764,0.602-4.861,3.455
	c-0.227,6.637,17.165,7.822,24.118,8.731c78.321,10.244,129.341-40.427,132.106-84.969c2.634-42.444,43.961-34.885,72.001-49.604
	c32.444-17.031,53.176-41.969,59.156-76.874c2.468,1.755,4.958,3.481,7.461,5.189c6.214,25.119,3.688,49.977-13.602,69.672
	c-37.828,43.09-48.41,91.576-38.852,129.515c12.37,49.107-6.21,100.596-43.237,131.454c-1.728,1.44-4.375,1.98-3.627,4.734
	c1.74,6.409,18.708,2.415,25.62,1.235c77.847-13.294,111.681-76.745,101.191-120.132c-9.993-41.335,31.726-46.293,54.181-68.623
	c25.961-25.816,38.422-55.728,33.881-90.806c2.89,0.951,5.793,1.875,8.708,2.771c13.305,22.146,18.173,46.618,7.479,70.485
	c-23.446,52.326-19.267,101.776,1.049,135.213c26.297,43.282,23.715,97.96-2.569,138.359c-1.227,1.886-3.597,3.181-2.07,5.593
	c3.552,5.612,18.602-3.214,24.845-6.372c70.468-35.648,84.099-106.253,61.286-144.622c-21.733-36.553,16.671-53.587,31.547-81.544
	c17.22-32.364,20.297-64.661,5.552-96.885c3.949,0.074,6.462,0.091,9.042,0.091c19.334,17.284,31.273,39.2,28.076,65.266
	c-6.981,56.912,11.588,102.934,40.857,128.896c37.884,33.606,51.537,86.615,38.327,132.969c-0.616,2.164-2.499,4.1-0.33,5.955
	c5.048,4.315,16.828-8.554,21.864-13.412c56.83-54.835,49.044-126.321,15.935-156.261c-31.542-28.523,0.135-56.121,6.109-87.22
	c6.907-35.956,0.352-67.691-23.163-94.117c2.933-0.843,5.854-1.712,8.763-2.61c23.463,10.8,41.272,28.278,45.881,54.023
	c10.104,56.442,41.414,94.945,77.035,111.127c46.106,20.946,74.777,67.575,75.817,115.765c0.049,2.249-1.18,4.655,1.44,5.787
	c6.096,2.636,13.56-13.134,16.939-19.26c38.143-69.152,9.63-135.165-30.832-154.016c-38.548-17.959-16.412-53.667-19.871-85.146
	c-4-36.419-19.636-64.826-49.937-83.145c2.533-1.661,5.046-3.348,7.544-5.057c25.655,3.393,47.871,14.826,59.888,38.116
	c26.292,50.956,67.559,78.52,106.368,83.484c50.235,6.426,91.375,42.536,106.571,88.274c0.709,2.135,0.245,4.796,3.082,5.106
	c6.602,0.722,9.086-16.547,10.509-23.398c16.065-77.32-30.637-131.999-74.859-138.086c-42.128-5.799-31.502-46.446-44.085-75.506
	c-14.564-33.637-37.892-56.178-72.271-64.744c1.931-2.327,3.839-4.673,5.725-7.038c25.829-4.378,50.302,0.203,68.501,18.764
	c40.143,40.942,87.702,55.118,126.249,48.422c49.898-8.667,99.853,13.714,127.856,52.94c1.307,1.831,1.647,4.51,4.45,3.971
	c6.521-1.256,3.806-18.475,3.146-25.456c-7.441-78.636-68.194-117.102-112.235-109.886c-41.966,6.876-43.792-35.096-64.383-59.157
	c-23.805-27.819-52.704-42.48-88.026-40.571c1.167-2.813,2.311-5.638,3.424-8.479c23.074-11.61,47.841-14.637,70.843-2.188
	c50.428,27.291,100.052,26.818,134.913,9.058c45.127-22.99,99.46-16.327,137.78,12.902c1.789,1.364,2.904,3.825,5.422,2.483
	c5.861-3.122-1.814-18.79-4.497-25.252c-30.282-72.935-99.671-91.804-139.638-71.922c-38.075,18.941-52.192-20.629-78.959-37.552
	c-30.976-19.584-62.943-25.069-96.167-12.789c0.279-2.997,0.531-6.001,0.751-9.014c18.771-18.068,41.516-28.219,67.165-23.103
	c56.232,11.215,103.511-3.864,131.589-31.11c36.342-35.266,90.224-44.92,135.461-28.283c2.111,0.776,3.902,2.799,5.913,0.774
	C1626.185,771.12,1614.232,758.411,1609.764,753.027z"/>
</svg>
