<svg width="144" height="144" viewBox="0 0 144 144" fill="none" xmlns="http://www.w3.org/2000/svg">
  <defs>
    <linearGradient id="bg" x1="72" y1="0" x2="72" y2="144" gradientUnits="userSpaceOnUse">
      <stop offset="0" stop-color="#2a76a6" />
      <stop offset="1" stop-color="#103868" />
    </linearGradient>
    <linearGradient id="dropFill" x1="0" y1="0" x2="0" y2="1">
      <stop offset="0" stop-color="#C8ECEC" />
      <stop offset="0.45" stop-color="#2ABFBF" />
      <stop offset="0.72" stop-color="#3F8FB0" />
      <stop offset="1" stop-color="#D44868" />
    </linearGradient>
    <radialGradient id="dropSheen" cx="0.36" cy="0.27" r="0.6">
      <stop offset="0" stop-color="#FFFFFF" stop-opacity="0.6" />
      <stop offset="0.55" stop-color="#FFFFFF" stop-opacity="0.12" />
      <stop offset="1" stop-color="#FFFFFF" stop-opacity="0" />
    </radialGradient>
  </defs>
  <rect width="144" height="144" rx="32" fill="url(#bg)" />
  <g transform="translate(33.46 20.3) scale(0.94)">
    <path
      d="M 41 2 C 41 2, 43 8, 62 36 C 74 54, 79 68, 79 78 C 79 95, 62 108, 41 108 C 20 108, 3 95, 3 78 C 3 68, 8 54, 20 36 C 39 8, 41 2, 41 2 Z"
      fill="url(#dropFill)"
    />
    <path
      d="M 41 2 C 41 2, 43 8, 62 36 C 74 54, 79 68, 79 78 C 79 95, 62 108, 41 108 C 20 108, 3 95, 3 78 C 3 68, 8 54, 20 36 C 39 8, 41 2, 41 2 Z"
      fill="url(#dropSheen)"
    />
  </g>
</svg>
